<svg width="500" height="500" viewBox="0 0 500 500" fill="none" xmlns="http://www.w3.org/2000/svg">
<rect width="500" height="500" fill="#D0114D"/>
<circle cx="227" cy="219" r="125" fill="#680927"/>
<circle cx="222" cy="213" r="125" fill="#820829"/>
<g filter="url(#filter0_d)">
<circle cx="290" cy="387" r="25" fill="#820829"/>
</g>
<g filter="url(#filter1_d)">
<circle cx="377" cy="319" r="25" fill="#820829"/>
</g>
<path d="M158.61 245C157.586 245 156.69 244.648 155.922 243.944C155.218 243.24 154.866 242.344 154.866 241.256V173.768C154.866 172.744 155.218 171.88 155.922 171.176C156.69 170.408 157.586 170.024 158.61 170.024C159.634 170.024 160.498 170.408 161.202 171.176C161.97 171.88 162.354 172.744 162.354 173.768V237.896H199.89C200.914 237.896 201.778 238.248 202.482 238.952C203.25 239.592 203.634 240.424 203.634 241.448C203.634 242.472 203.25 243.336 202.482 244.04C201.778 244.68 200.914 245 199.89 245H158.61ZM219.936 245C218.784 245 217.856 244.68 217.152 244.04C216.512 243.336 216.192 242.408 216.192 241.256V196.232C216.192 195.08 216.512 194.184 217.152 193.544C217.856 192.84 218.784 192.488 219.936 192.488C221.024 192.488 221.888 192.84 222.528 193.544C223.232 194.184 223.584 195.08 223.584 196.232V241.256C223.584 242.408 223.232 243.336 222.528 244.04C221.888 244.68 221.024 245 219.936 245ZM219.84 182.504C218.432 182.504 217.216 181.992 216.192 180.968C215.168 179.944 214.656 178.696 214.656 177.224C214.656 175.624 215.168 174.376 216.192 173.48C217.28 172.52 218.528 172.04 219.936 172.04C221.28 172.04 222.464 172.52 223.488 173.48C224.576 174.376 225.12 175.624 225.12 177.224C225.12 178.696 224.608 179.944 223.584 180.968C222.56 181.992 221.312 182.504 219.84 182.504ZM265.542 245.48C260.614 245.48 256.198 244.328 252.294 242.024C248.39 239.656 245.286 236.456 242.982 232.424C240.742 228.392 239.622 223.848 239.622 218.792C239.622 213.672 240.774 209.096 243.078 205.064C245.446 201.032 248.646 197.864 252.678 195.56C256.71 193.192 261.254 192.008 266.31 192.008C271.366 192.008 275.878 193.192 279.846 195.56C283.878 197.864 287.046 201.032 289.35 205.064C291.718 209.096 292.934 213.672 292.998 218.792V241.352C292.998 242.44 292.646 243.336 291.942 244.04C291.238 244.68 290.342 245 289.254 245C288.166 245 287.27 244.68 286.566 244.04C285.862 243.336 285.51 242.44 285.51 241.352V235.496C283.334 238.568 280.518 241 277.062 242.792C273.606 244.584 269.766 245.48 265.542 245.48ZM266.31 238.76C270.022 238.76 273.318 237.896 276.198 236.168C279.142 234.44 281.446 232.072 283.11 229.064C284.838 225.992 285.702 222.568 285.702 218.792C285.702 214.952 284.838 211.528 283.11 208.52C281.446 205.512 279.142 203.144 276.198 201.416C273.318 199.624 270.022 198.728 266.31 198.728C262.662 198.728 259.366 199.624 256.422 201.416C253.478 203.144 251.142 205.512 249.414 208.52C247.686 211.528 246.822 214.952 246.822 218.792C246.822 222.568 247.686 225.992 249.414 229.064C251.142 232.072 253.478 234.44 256.422 236.168C259.366 237.896 262.662 238.76 266.31 238.76Z" fill="white"/>
<defs>
<filter id="filter0_d" x="261" y="362" width="58" height="58" filterUnits="userSpaceOnUse" color-interpolation-filters="sRGB">
<feFlood flood-opacity="0" result="BackgroundImageFix"/>
<feColorMatrix in="SourceAlpha" type="matrix" values="0 0 0 0 0 0 0 0 0 0 0 0 0 0 0 0 0 0 127 0" result="hardAlpha"/>
<feOffset dy="4"/>
<feGaussianBlur stdDeviation="2"/>
<feComposite in2="hardAlpha" operator="out"/>
<feColorMatrix type="matrix" values="0 0 0 0 0 0 0 0 0 0 0 0 0 0 0 0 0 0 0.25 0"/>
<feBlend mode="normal" in2="BackgroundImageFix" result="effect1_dropShadow"/>
<feBlend mode="normal" in="SourceGraphic" in2="effect1_dropShadow" result="shape"/>
</filter>
<filter id="filter1_d" x="348" y="294" width="58" height="58" filterUnits="userSpaceOnUse" color-interpolation-filters="sRGB">
<feFlood flood-opacity="0" result="BackgroundImageFix"/>
<feColorMatrix in="SourceAlpha" type="matrix" values="0 0 0 0 0 0 0 0 0 0 0 0 0 0 0 0 0 0 127 0" result="hardAlpha"/>
<feOffset dy="4"/>
<feGaussianBlur stdDeviation="2"/>
<feComposite in2="hardAlpha" operator="out"/>
<feColorMatrix type="matrix" values="0 0 0 0 0 0 0 0 0 0 0 0 0 0 0 0 0 0 0.25 0"/>
<feBlend mode="normal" in2="BackgroundImageFix" result="effect1_dropShadow"/>
<feBlend mode="normal" in="SourceGraphic" in2="effect1_dropShadow" result="shape"/>
</filter>
</defs>
</svg>
