<svg width="500" height="500" viewBox="0 0 500 500" fill="none" xmlns="http://www.w3.org/2000/svg">
<g clip-path="url(#clip0)">
<rect width="500" height="500" fill="#D0114D"/>
<circle cx="275" cy="267" r="125" fill="#680927"/>
<circle cx="270" cy="261" r="125" fill="#820829"/>
<g filter="url(#filter0_d)">
<circle cx="338" cy="435" r="25" fill="#820829"/>
</g>
<g filter="url(#filter1_d)">
<circle cx="425" cy="367" r="25" fill="#820829"/>
</g>
<path d="M269.805 337C269.293 337 268.845 336.824 268.461 336.472C268.109 336.12 267.933 335.672 267.933 335.128V301.384C267.933 300.872 268.109 300.44 268.461 300.088C268.845 299.704 269.293 299.512 269.805 299.512C270.317 299.512 270.749 299.704 271.101 300.088C271.485 300.44 271.677 300.872 271.677 301.384V333.448H290.445C290.957 333.448 291.389 333.624 291.741 333.976C292.125 334.296 292.317 334.712 292.317 335.224C292.317 335.736 292.125 336.168 291.741 336.52C291.389 336.84 290.957 337 290.445 337H269.805ZM300.468 337C299.892 337 299.428 336.84 299.076 336.52C298.756 336.168 298.596 335.704 298.596 335.128V312.616C298.596 312.04 298.756 311.592 299.076 311.272C299.428 310.92 299.892 310.744 300.468 310.744C301.012 310.744 301.444 310.92 301.764 311.272C302.116 311.592 302.292 312.04 302.292 312.616V335.128C302.292 335.704 302.116 336.168 301.764 336.52C301.444 336.84 301.012 337 300.468 337ZM300.42 305.752C299.716 305.752 299.108 305.496 298.596 304.984C298.084 304.472 297.828 303.848 297.828 303.112C297.828 302.312 298.084 301.688 298.596 301.24C299.14 300.76 299.764 300.52 300.468 300.52C301.14 300.52 301.732 300.76 302.244 301.24C302.788 301.688 303.06 302.312 303.06 303.112C303.06 303.848 302.804 304.472 302.292 304.984C301.78 305.496 301.156 305.752 300.42 305.752ZM323.271 337.24C320.807 337.24 318.599 336.664 316.647 335.512C314.695 334.328 313.143 332.728 311.991 330.712C310.871 328.696 310.311 326.424 310.311 323.896C310.311 321.336 310.887 319.048 312.039 317.032C313.223 315.016 314.823 313.432 316.839 312.28C318.855 311.096 321.127 310.504 323.655 310.504C326.183 310.504 328.439 311.096 330.423 312.28C332.439 313.432 334.023 315.016 335.175 317.032C336.359 319.048 336.967 321.336 336.999 323.896V335.176C336.999 335.72 336.823 336.168 336.471 336.52C336.119 336.84 335.671 337 335.127 337C334.583 337 334.135 336.84 333.783 336.52C333.431 336.168 333.255 335.72 333.255 335.176V332.248C332.167 333.784 330.759 335 329.031 335.896C327.303 336.792 325.383 337.24 323.271 337.24ZM323.655 333.88C325.511 333.88 327.159 333.448 328.599 332.584C330.071 331.72 331.223 330.536 332.055 329.032C332.919 327.496 333.351 325.784 333.351 323.896C333.351 321.976 332.919 320.264 332.055 318.76C331.223 317.256 330.071 316.072 328.599 315.208C327.159 314.312 325.511 313.864 323.655 313.864C321.831 313.864 320.183 314.312 318.711 315.208C317.239 316.072 316.071 317.256 315.207 318.76C314.343 320.264 313.911 321.976 313.911 323.896C313.911 325.784 314.343 327.496 315.207 329.032C316.071 330.536 317.239 331.72 318.711 332.584C320.183 333.448 321.831 333.88 323.655 333.88Z" fill="white"/>
<rect x="48" y="48" width="226" height="229.324" fill="#D0114D"/>
<path d="M274 48H500V277.324H274V48Z" fill="#D0114D"/>
<path d="M20 271H246V500.324H20V271Z" fill="#D0114D"/>
</g>
<defs>
<filter id="filter0_d" x="309" y="410" width="58" height="58" filterUnits="userSpaceOnUse" color-interpolation-filters="sRGB">
<feFlood flood-opacity="0" result="BackgroundImageFix"/>
<feColorMatrix in="SourceAlpha" type="matrix" values="0 0 0 0 0 0 0 0 0 0 0 0 0 0 0 0 0 0 127 0" result="hardAlpha"/>
<feOffset dy="4"/>
<feGaussianBlur stdDeviation="2"/>
<feComposite in2="hardAlpha" operator="out"/>
<feColorMatrix type="matrix" values="0 0 0 0 0 0 0 0 0 0 0 0 0 0 0 0 0 0 0.25 0"/>
<feBlend mode="normal" in2="BackgroundImageFix" result="effect1_dropShadow"/>
<feBlend mode="normal" in="SourceGraphic" in2="effect1_dropShadow" result="shape"/>
</filter>
<filter id="filter1_d" x="396" y="342" width="58" height="58" filterUnits="userSpaceOnUse" color-interpolation-filters="sRGB">
<feFlood flood-opacity="0" result="BackgroundImageFix"/>
<feColorMatrix in="SourceAlpha" type="matrix" values="0 0 0 0 0 0 0 0 0 0 0 0 0 0 0 0 0 0 127 0" result="hardAlpha"/>
<feOffset dy="4"/>
<feGaussianBlur stdDeviation="2"/>
<feComposite in2="hardAlpha" operator="out"/>
<feColorMatrix type="matrix" values="0 0 0 0 0 0 0 0 0 0 0 0 0 0 0 0 0 0 0.25 0"/>
<feBlend mode="normal" in2="BackgroundImageFix" result="effect1_dropShadow"/>
<feBlend mode="normal" in="SourceGraphic" in2="effect1_dropShadow" result="shape"/>
</filter>
<clipPath id="clip0">
<rect width="500" height="500" fill="white"/>
</clipPath>
</defs>
</svg>
